HIERARCHY
ROOT root
{
	OFFSET 0.000000 0.000000 0.000000
	CHANNELS 6 Xposition Yposition Zposition Zrotation Yrotation Xrotation
	JOINT lhip
	{
		OFFSET 0.058581 -0.082280 -0.017664
		CHANNELS 3 Zrotation Yrotation Xrotation
		JOINT lknee
		{
			OFFSET 0.043451 -0.386469 0.008037
			CHANNELS 3 Zrotation Yrotation Xrotation
			JOINT lankle
			{
				OFFSET -0.014790 -0.426874 -0.037428
				CHANNELS 3 Zrotation Yrotation Xrotation
				JOINT ltoe
				{
					OFFSET 0.041054 -0.060286 0.122042
					CHANNELS 3 Zrotation Yrotation Xrotation
					End Site
					{
						OFFSET 0.000000 0.000000 0.000000
					}
				}
			}
		}
	}
	JOINT rhip
	{
		OFFSET -0.060310 -0.090513 -0.013543
		CHANNELS 3 Zrotation Yrotation Xrotation
		JOINT rknee
		{
			OFFSET -0.043257 -0.383688 -0.004843
			CHANNELS 3 Zrotation Yrotation Xrotation
			JOINT rankle
			{
				OFFSET 0.019056 -0.420046 -0.034562
				CHANNELS 3 Zrotation Yrotation Xrotation
				JOINT rtoe
				{
					OFFSET -0.034840 -0.062106 0.130323
					CHANNELS 3 Zrotation Yrotation Xrotation
					End Site
					{
						OFFSET 0.000000 0.000000 0.000000
					}
				}
			}
		}
	}
	JOINT lowerback
	{
		OFFSET 0.004439 0.124404 -0.038385
		CHANNELS 3 Zrotation Yrotation Xrotation
		JOINT upperback
		{
			OFFSET 0.004488 0.137956 0.026820
			CHANNELS 3 Zrotation Yrotation Xrotation
			JOINT chest
			{
				OFFSET -0.002265 0.056032 0.002855
				CHANNELS 3 Zrotation Yrotation Xrotation
				JOINT lowerneck
				{
					OFFSET -0.013390 0.211636 -0.033468
					CHANNELS 3 Zrotation Yrotation Xrotation
					JOINT upperneck
					{
						OFFSET 0.010113 0.088937 0.050410
						CHANNELS 3 Zrotation Yrotation Xrotation
						End Site
						{
							OFFSET 0.000000 0.000000 0.000000
						}
					}
				}
				JOINT lclavicle
				{
					OFFSET 0.071702 0.114000 -0.018898
					CHANNELS 3 Zrotation Yrotation Xrotation
					JOINT lshoulder
					{
						OFFSET 0.122921 0.045205 -0.019046
						CHANNELS 3 Zrotation Yrotation Xrotation
						JOINT lelbow
						{
							OFFSET 0.255332 -0.015649 -0.022946
							CHANNELS 3 Zrotation Yrotation Xrotation
							JOINT lwrist
							{
								OFFSET 0.265709 0.012698 -0.007375
								CHANNELS 3 Zrotation Yrotation Xrotation
								End Site
								{
									OFFSET 0.000000 0.000000 0.000000
								}
							}
						}
					}
				}
				JOINT rclavicle
				{
					OFFSET -0.082954 0.112472 -0.023707
					CHANNELS 3 Zrotation Yrotation Xrotation
					JOINT rshoulder
					{
						OFFSET -0.113228 0.046853 -0.008472
						CHANNELS 3 Zrotation Yrotation Xrotation
						JOINT relbow
						{
							OFFSET -0.260127 -0.014369 -0.031269
							CHANNELS 3 Zrotation Yrotation Xrotation
							JOINT rwrist
							{
								OFFSET -0.269108 0.006794 -0.006027
								CHANNELS 3 Zrotation Yrotation Xrotation
								End Site
								{
									OFFSET 0.000000 0.000000 0.000000
								}
							}
						}
					}
				}
			}
		}
	}
}
MOTION
Frames: 11
Frame Time: 0.033333
0.509818 0.199161 0.997818 79.026493 4.273195 102.313559 6.460506 3.547333 -6.505724 3.854828 17.562412 -8.193019 -2.591231 3.662380 -1.901033 0.000000 -0.000000 0.000000 -4.731972 3.522597 -16.497252 -1.596563 -7.595221 1.866518 9.565241 5.869592 -0.012460 0.000000 -0.000000 0.000000 1.464034 -2.360530 1.798957 5.410105 -5.818003 7.576719 3.336116 -1.149693 -3.634477 0.884839 0.287304 21.032941 7.920803 -10.570175 -16.824289 -10.964389 1.618944 -4.774216 -48.139738 -1.141024 24.099046 160.887517 -45.421977 -148.961944 -44.692860 -57.969606 -20.517472 4.122236 2.374521 -6.339164 40.292952 0.055720 17.530661 -166.289231 44.230174 -160.294571 56.039829 41.702506 -22.800140 
0.510574 0.197148 0.995197 78.469516 4.533631 102.018466 6.547018 3.638615 -5.815843 4.039024 18.467990 -8.606700 -2.086954 3.274347 -2.244621 0.000000 -0.000000 0.000000 -4.767655 4.362793 -16.286539 -1.468403 -8.301514 1.995982 9.186093 6.806403 -0.402387 0.000000 -0.000000 0.000000 1.217086 -2.635773 2.063995 5.909572 -5.458685 9.148965 2.875359 -0.891273 -5.352797 1.913578 0.871531 19.422118 6.597555 -10.780737 -14.500719 -17.065546 2.781127 -4.065847 -53.859418 -1.635443 23.970874 157.655729 -44.153585 -142.554824 -44.997170 -57.381190 -20.285818 11.994387 1.331399 -6.366119 47.722644 0.727541 18.424530 -160.964321 42.905703 -151.386827 56.298163 41.616599 -24.561270 
0.512285 0.195112 0.992714 78.423226 5.068019 101.637953 7.037097 3.685839 -4.769779 3.979479 19.634562 -9.578497 -2.068935 2.075632 -2.065358 0.000000 -0.000000 0.000000 -4.392541 4.877674 -15.522326 -1.328200 -9.443628 1.620888 9.006028 7.953982 -0.491124 0.000000 -0.000000 0.000000 1.332716 -2.724434 2.646640 6.362798 -5.172517 9.017790 2.616564 -0.517988 -6.361685 3.128915 0.921876 19.666643 5.996904 -11.739495 -13.977475 -20.559133 4.055035 -3.296222 -63.295219 -4.064320 24.672112 153.968441 -44.145223 -136.039057 -47.188829 -58.720485 -20.950023 15.736557 0.484249 -5.225679 59.082771 1.704515 19.941457 -154.889781 41.821245 -142.435736 57.343802 41.696865 -26.389366 
0.512224 0.194389 0.990687 78.296329 5.374540 101.399975 7.207716 3.623287 -4.249196 4.089824 20.520527 -10.153681 -2.442416 1.272750 -1.618861 0.000000 -0.000000 0.000000 -4.261166 5.192326 -15.268907 -1.222506 -10.161045 1.495789 9.382402 8.606865 -0.299626 0.000000 -0.000000 0.000000 1.425082 -2.812947 3.332535 6.522344 -4.588107 7.639890 2.498919 -0.358350 -5.434148 4.399431 1.358654 19.476091 5.217198 -12.419607 -13.413529 -18.626082 5.790665 -4.138605 -73.343451 -6.844840 26.964215 152.158787 -45.708914 -132.137921 -44.039758 -61.367324 -27.079160 14.329206 -0.379965 -4.749519 65.551731 3.677827 22.226576 -153.591300 42.756673 -138.551885 52.747205 42.110181 -31.033501 
0.511343 0.194816 0.992113 78.408837 5.438196 101.481651 7.378453 3.707922 -4.508983 4.008001 20.016338 -9.984865 -2.862657 1.550421 -1.316819 0.000000 -0.000000 0.000000 -4.026958 4.773574 -15.490814 -1.289831 -9.483934 1.599189 9.742189 7.891419 0.097718 0.000000 -0.000000 0.000000 1.394423 -2.580174 3.739221 6.219154 -4.440184 5.842711 2.922431 -0.320412 -4.197076 3.978401 0.741465 19.661389 6.183436 -12.166126 -13.771034 -15.390815 3.182137 -4.296659 -70.852762 -7.605449 28.235841 154.747760 -46.508392 -136.446934 -36.839839 -61.500431 -32.134287 10.764788 1.205038 -4.992693 60.281528 3.660617 22.021600 -158.603406 44.218028 -144.422084 49.955589 43.484172 -33.531625 
0.509816 0.194391 0.994932 78.961671 4.945311 102.088184 7.163719 3.551156 -5.874405 3.951321 18.926614 -8.925454 -3.130608 2.257601 -1.522692 0.000000 -0.000000 0.000000 -4.164125 4.195204 -16.185547 -1.551750 -8.687976 1.756905 9.826147 6.817987 -0.010852 0.000000 -0.000000 0.000000 1.233160 -2.429003 2.937411 5.719742 -5.073913 5.516264 3.296972 -0.798367 -3.309925 2.901352 1.055502 19.463883 6.286590 -11.913832 -14.255311 -12.461853 0.353037 -4.572417 -61.988768 -6.692804 25.850099 156.239370 -45.707084 -138.797910 -42.339261 -60.259721 -25.184628 7.329478 3.963976 -5.891097 51.487183 3.144960 20.077819 -162.211039 44.288596 -149.279800 51.586729 43.446336 -30.198499 
0.508594 0.194806 0.996992 79.421622 4.737153 102.134219 7.001966 3.552088 -6.269423 4.082815 17.820546 -8.567863 -3.191588 3.072078 -1.650625 0.000000 -0.000000 0.000000 -4.116858 3.797319 -16.097003 -1.569198 -7.876390 1.549543 9.519049 5.729877 -0.041946 0.000000 -0.000000 0.000000 1.386518 -2.527859 3.001763 5.436427 -5.669164 5.754758 3.431679 -1.193103 -3.158886 2.037737 1.073490 19.184138 6.685925 -11.805170 -15.493708 -10.851894 -0.201533 -4.865093 -53.377947 -4.395423 23.047161 157.494637 -45.674583 -142.758540 -46.119968 -59.806272 -21.073248 4.731230 4.737516 -6.597306 43.449302 1.870689 18.455228 -163.916130 44.944961 -154.395973 52.284053 43.490929 -27.968230 
0.508438 0.195096 0.997518 79.579123 4.842923 102.080660 7.161383 3.762734 -6.142949 3.980152 17.359926 -8.855698 -3.021714 3.366455 -1.351589 0.000000 -0.000000 0.000000 -3.907490 3.669198 -15.917486 -1.499021 -7.554928 1.319422 9.212572 5.372438 0.051875 0.000000 -0.000000 0.000000 1.791674 -2.739623 3.321531 5.014721 -5.771577 6.077396 3.264081 -1.092823 -3.497946 2.079455 0.698118 18.725401 7.549372 -11.860111 -16.035696 -11.048054 0.078583 -4.475910 -49.229373 -1.700630 22.657223 157.889487 -45.334961 -145.189872 -47.967373 -59.386013 -19.073763 4.032500 4.169937 -6.174525 42.411718 -0.852337 17.300118 -162.923823 45.233172 -156.470829 56.972550 42.501935 -23.998220 
0.509376 0.194799 0.996778 79.457879 4.889333 102.188944 7.237184 3.757291 -6.096622 3.902034 17.781824 -8.962976 -2.732654 2.885174 -1.469626 0.000000 -0.000000 0.000000 -4.002084 3.842756 -16.092596 -1.427913 -8.101530 1.540537 9.215431 6.030842 -0.208095 0.000000 -0.000000 0.000000 1.675476 -2.587128 3.221367 5.179672 -5.464540 6.412226 3.118509 -1.030824 -3.662001 2.481224 0.350287 18.385981 7.843706 -12.190037 -16.413584 -13.288416 0.667748 -3.319467 -53.379865 -0.833925 23.570427 157.096082 -44.817844 -142.721283 -46.758808 -59.247923 -20.415645 6.826244 3.089736 -5.351009 46.788531 -2.137854 16.744887 -160.390532 43.320758 -151.666662 57.586725 41.171107 -22.979956 
0.509981 0.194139 0.994844 79.109622 4.940209 102.078087 7.266684 3.740187 -5.877908 3.935532 18.570707 -8.881132 -2.481173 2.309624 -1.788957 0.000000 -0.000000 0.000000 -4.181130 4.309810 -16.149615 -1.379728 -8.733407 1.844722 8.860632 6.883163 -0.511653 0.000000 -0.000000 0.000000 1.442263 -2.515535 2.931089 5.583967 -5.227624 8.215205 2.800552 -0.992878 -5.153045 3.184013 -0.095471 16.862417 6.637467 -12.865303 -14.537385 -18.030952 1.241492 -2.216132 -59.483528 -1.646581 23.892981 154.670495 -44.767740 -138.717856 -46.373708 -59.412893 -21.477100 12.582414 2.130992 -4.697939 52.916893 -0.920006 17.450565 -157.819691 41.644408 -146.188114 55.985280 40.489755 -25.499649 
0.510870 0.193320 0.993109 78.907543 5.162377 101.842294 7.357616 3.535528 -5.220091 3.976120 19.772811 -9.456404 -2.478029 1.417514 -1.849759 0.000000 -0.000000 0.000000 -4.214795 4.856585 -15.752894 -1.293492 -9.988947 1.670382 8.902638 8.103320 -0.545990 0.000000 -0.000000 0.000000 1.477652 -2.695470 3.712870 5.836749 -5.019420 8.075119 2.482552 -0.658936 -6.307665 4.231219 0.161993 17.059940 6.061053 -13.189084 -13.145532 -21.414398 2.600122 -2.606212 -67.816686 -3.132924 25.783413 151.057862 -45.520733 -132.956025 -47.537497 -61.710206 -22.708701 15.742786 2.129743 -4.533846 60.684780 0.413857 20.056194 -153.471560 42.298104 -139.956893 57.222005 43.179969 -25.320533 
